<svg width="43" height="29" viewBox="0 0 43 29" fill="none" xmlns="http://www.w3.org/2000/svg">
<g id="Vector">
<path fill-rule="evenodd" clip-rule="evenodd" d="M18.3033 8.81907C18.1432 8.75947 17.9015 8.74585 17.7653 8.78501C18.3646 9.05576 18.2965 9.55127 18.86 9.61427C19.3419 9.66706 19.5292 9.48657 19.6024 9.55468C19.6398 9.59214 19.599 9.80158 19.6552 10.0093C19.7897 10.0536 20.0195 9.9957 20.0995 10.0298C20.2375 10.0894 20.0859 10.3703 20.3873 10.5116C20.595 10.6121 20.6154 10.7688 20.5575 10.9339C20.5082 11.0719 20.3737 11.2353 20.2698 11.4124C20.0059 11.8705 20.6274 12.5261 20.956 11.9948C21.1671 11.6559 21.2573 10.75 21.4548 10.292C21.9128 9.23115 22.2482 8.61133 22.4713 7.94554C22.5581 7.68501 22.742 7.24909 22.6211 7.02262C22.5002 6.80125 21.872 6.91534 21.8652 6.77912C21.8617 6.69228 22.4849 6.71271 22.5002 6.62246C22.5139 6.51178 21.7902 6.38407 21.8311 6.24444C21.8771 6.08097 22.5445 6.43515 22.5939 6.31085C22.6569 6.15079 21.8243 5.65868 21.9946 5.47478C22.0882 5.37091 22.6841 6.07076 22.8339 5.90388C22.9174 5.81023 22.5768 5.15125 22.7709 5.061C22.8952 5.00481 23.0212 5.39985 23.1421 5.75404C23.5337 6.90853 24.3629 5.81023 24.3101 6.26658C24.2931 6.44026 24.1092 6.48453 23.9219 6.56116C23.4741 6.74506 23.4026 7.23036 23.2868 7.67138C23.0468 8.61473 23.0961 9.58533 22.8714 10.5219C22.7471 11.0344 22.4628 11.673 22.3095 12.1787C22.5939 12.4665 23.0093 12.3864 22.444 13.0182C22.3402 13.1748 22.3879 13.34 22.5888 13.5137C24.305 15.3033 24.5723 16.8001 24.3782 18.2951C22.8952 18.743 21.431 19.138 20.011 19.4803C20.309 18.5369 20.8249 17.7434 20.8538 16.5923C20.8742 15.7529 20.6461 15.5077 20.0314 16.0934C20.0042 16.1207 19.9787 16.0968 19.8901 15.993C19.8561 15.9521 19.8459 15.9334 19.7795 15.8618C19.5053 16.2399 18.5842 17.0861 18.4906 17.5544C18.4242 17.8728 18.5808 18.1538 18.6983 18.3735C18.826 18.6119 18.9792 18.7276 18.9333 18.7413C18.6319 18.8451 18.4957 18.4024 18.2403 18.4501C18.0019 18.4961 17.9389 19.1567 17.7687 19.1057C17.6274 19.0648 17.8759 18.3666 17.8453 18.353C17.7346 18.3156 17.28 18.9984 17.1421 18.9354C17.0144 18.8792 17.5899 18.1862 17.5405 18.1555C17.4605 18.1027 16.8373 18.5999 16.7113 18.4995C16.6245 18.4331 17.3039 17.9205 17.2868 17.8865C17.2596 17.8235 16.6313 17.9801 16.6415 17.82C16.6449 17.757 16.8595 17.7298 17.0927 17.6498C17.8453 17.3961 18.2335 16.2313 18.7051 15.2676C18.9264 14.8095 19.8288 13.7725 19.4713 13.4507C19.33 13.3196 19.0456 13.323 18.7647 13.4643C16.616 14.5524 15.4855 13.7555 14.864 12.3336C14.7006 12.4137 14.5558 12.572 14.5269 12.7491C14.3924 12.5414 14.4469 12.2604 14.6546 12.1208C14.326 12.114 14.0246 11.9369 13.8578 11.6491C14.1081 11.8126 14.406 11.8841 14.7006 11.85C13.9582 9.49338 17.3669 7.81101 18.4787 8.58408C18.2437 8.5347 18.0002 8.57046 17.8402 8.64368C18.0019 8.6556 18.196 8.73223 18.3033 8.81907ZM23.9696 20.1801C23.7789 20.9294 23.6512 21.8574 23.7959 22.6764C23.9134 23.3558 22.1257 23.0783 21.557 23.0442C20.5865 22.988 20.2851 23 20.1677 22.8399C20.0638 22.702 20.0978 22.4346 19.9565 21.8863C19.9003 21.682 19.8663 21.4845 19.839 21.3006C21.1909 20.9668 22.57 20.5956 23.9696 20.1801Z" fill="#0C0B38"/>
<path fill-rule="evenodd" clip-rule="evenodd" d="M23.0658 23.0749C23.0556 23.8786 22.4665 24.9684 22.2928 25.8964C22.2264 26.2285 22.1532 26.6967 22.1889 26.9402C22.3234 27.8666 23.2428 28.1083 23.2054 28.2786C23.1679 28.4557 22.6367 28.3161 22.4699 28.2582C21.7037 27.967 21.0482 27.5788 20.6872 26.9624C20.4625 26.5741 21.009 26.5707 21.1793 26.397C21.6015 25.9662 21.2831 24.272 21.6782 22.7633L23.0658 23.0749Z" fill="#0C0B38"/>
<path fill-rule="evenodd" clip-rule="evenodd" d="M22.5106 23.2588C22.1224 23.962 21.0924 24.6449 20.4998 25.3839C20.2887 25.6478 20.001 26.0258 19.9175 26.2574C19.6026 27.1378 20.2955 27.7831 20.1849 27.9142C20.0674 28.0522 19.6656 27.6826 19.5464 27.5498C19.0271 26.9573 18.6389 26.3289 18.5895 25.6461C18.5452 25.074 19.0049 25.389 19.2825 25.3021C19.8614 25.1182 20.3738 23.4716 21.4346 22.3308L22.5106 23.2588Z" fill="#0C0B38"/>
<path fill-rule="evenodd" clip-rule="evenodd" d="M35.733 0.691666C39.2727 -0.0473475 41.7824 0.175719 42.569 1.53796C44.3823 4.67621 36.3783 12.6913 24.695 19.4378C13.0099 26.1842 2.06892 29.1062 0.255633 25.9663C-0.845958 24.0557 1.68413 20.3436 6.46847 16.2075C3.18243 19.3458 1.55643 22.0771 2.41966 23.5704C4.04225 26.3818 13.8272 23.7646 24.2795 17.7281C34.7353 11.6951 41.8931 4.52636 40.2705 1.71505C39.6916 0.710397 38.0622 0.400488 35.733 0.691666Z" fill="#0C0B38"/>
</g>
</svg>
